<svg xmlns="http://www.w3.org/2000/svg" viewBox="0 0 935.3 507.4"><defs><style>.cls-1{fill:#383838;}</style></defs><title>Asset 2</title><g id="Layer_2" data-name="Layer 2"><g id="Layer_2-2" data-name="Layer 2"><path class="cls-1" d="M770.2,357.6s-63.7,91.8-76.7,14.1S896.6,0,896.6,0H824.3S595.7,193.4,426.8,363.7,78.2,493.1,59.1,390.9,185.3,48.2,417.3,100.8c0,0,126.4,30.3,18.9,196.5,0,0-60.2,80.7-88.9,76.6a3,3,0,0,1-2.4-3.7c3.5-11.9,23.2-58.7,121-95.5,0,0,82.3-29.4,210.6-10.6S875.6,268,875.6,268s47.6-18.9,59.7-79.1c0,0-7.1,48.4-343.6,41.7,0,0-251,24.8-255.2,148.6-.8,25.3,187.2-79.3,159.9-207.8C473.8,65.2,325.1,72.7,274,78.5a180.8,180.8,0,0,0-34,7.3C175.6,106.3-49.1,194.3,9.7,407.1c68.4,247.6,443.5-41.3,443.5-41.3L776.3,53.2s-246.5,340.9-112,386.9c0,0,73.7,13.4,118.3-72.5Z"/></g></g></svg>